# xmcd
#
# Track frame offsets:
#	150
#	6697
#	17175
#	21735
#	32750
#	38837
#	53290
#	63387
#	74365
#	82410
#	102887
#	116402
#
# Disc length: 1760 seconds
#
# Revision: 1
# Processed by: cddbd v1.5.2PL0 Copyright (c) Steve Scherf et al.
# Submitted via: audiograbber 1.83.01
#
DISCID=a406de0c
DTITLE=Tammy Wynette - The Greatest Hits (Live)
DYEAR=1986
DGENRE=Country
TTITLE0=Welcome To My World
TTITLE1=Another Change
TTITLE2=Your Good Girl's Gonna Be Bad
TTITLE3=D I V O R C E
TTITLE4=Singing My Song
TTITLE5=Til I Can Make It On My Own
TTITLE6=Womanhood
TTITLE7=I Still Believe In Fairy Tales
TTITLE8=When The Grass Grows Over Me
TTITLE9=Gospel Favorites (Medley)
TTITLE10=Stand By Your Man
TTITLE11=Cryin' In The Rain
EXTD=(p) Prism Leisure 1989
EXTT0=
EXTT1=
EXTT2=
EXTT3=
EXTT4=
EXTT5=
EXTT6=
EXTT7=
EXTT8=
EXTT9=
EXTT10=
EXTT11=
PLAYORDER=
